<svg width="26" height="26" viewBox="0 0 26 26" fill="none" xmlns="http://www.w3.org/2000/svg">
<path d="M13 16.0001C12.7716 16.0067 12.5478 15.935 12.3658 15.7967C12.1839 15.6584 12.0548 15.462 12 15.2401L10.49 9.18009C10.3997 8.80208 10.3988 8.40823 10.4874 8.02981C10.5759 7.65138 10.7514 7.29881 11 7.00009C11.2398 6.69994 11.5441 6.45762 11.8904 6.29109C12.2366 6.12456 12.6158 6.03809 13 6.03809C13.3842 6.03809 13.7635 6.12456 14.1097 6.29109C14.4559 6.45762 14.7602 6.69994 15 7.00009C15.2416 7.30429 15.4089 7.6606 15.4887 8.04074C15.5686 8.42089 15.5588 8.81441 15.46 9.19009L14 15.2401C13.9453 15.462 13.8162 15.6584 13.6342 15.7967C13.4523 15.935 13.2285 16.0067 13 16.0001ZM13 8.00009C12.9145 7.99929 12.83 8.01882 12.7535 8.05707C12.677 8.09532 12.6107 8.15119 12.56 8.22009C12.5052 8.2857 12.4674 8.36383 12.4499 8.44756C12.4325 8.53129 12.4359 8.61802 12.46 8.70009L13 10.8801L13.54 8.70009C13.5641 8.61802 13.5676 8.53129 13.5502 8.44756C13.5327 8.36383 13.4949 8.2857 13.44 8.22009C13.3894 8.15119 13.323 8.09532 13.2465 8.05707C13.17 8.01882 13.0856 7.99929 13 8.00009Z" fill="#D91F1F"/>
<path d="M13 20C13.8284 20 14.5 19.3284 14.5 18.5C14.5 17.6716 13.8284 17 13 17C12.1716 17 11.5 17.6716 11.5 18.5C11.5 19.3284 12.1716 20 13 20Z" fill="#D91F1F"/>
<path d="M13 26C10.4288 26 7.91543 25.2376 5.77759 23.8091C3.63975 22.3807 1.97351 20.3503 0.989572 17.9749C0.0056327 15.5995 -0.251811 12.9856 0.249797 10.4638C0.751405 7.94208 1.98953 5.6257 3.80762 3.80762C5.6257 1.98953 7.94208 0.751405 10.4638 0.249797C12.9856 -0.251811 15.5995 0.0056327 17.9749 0.989572C20.3503 1.97351 22.3807 3.63975 23.8091 5.77759C25.2376 7.91543 26 10.4288 26 13C26 16.4478 24.6304 19.7544 22.1924 22.1924C19.7544 24.6304 16.4478 26 13 26ZM13 2.00001C10.8244 2.00001 8.69767 2.64514 6.88873 3.85384C5.07979 5.06254 3.66989 6.7805 2.83733 8.79049C2.00477 10.8005 1.78693 13.0122 2.21137 15.146C2.63581 17.2798 3.68345 19.2398 5.22183 20.7782C6.76021 22.3166 8.72022 23.3642 10.854 23.7886C12.9878 24.2131 15.1995 23.9952 17.2095 23.1627C19.2195 22.3301 20.9375 20.9202 22.1462 19.1113C23.3549 17.3023 24 15.1756 24 13C24 10.0826 22.8411 7.28473 20.7782 5.22183C18.7153 3.15893 15.9174 2.00001 13 2.00001Z" fill="#D91F1F"/>
</svg>
