<svg width="53" height="77" viewBox="0 0 53 77" fill="none" xmlns="http://www.w3.org/2000/svg">
<path d="M19.5085 12.3701H18.6115V17.594V22.8179H19.5085C32.4439 22.8179 41.7685 33.3335 41.7685 46.2688V66.3804H0V71.6043V76.8282H52.2162V46.2764C52.2162 27.582 38.1954 12.3701 19.5085 12.3701Z" fill="#00C57E"/>
<path d="M10.6367 59.7543V46.3365C10.6367 42.5976 13.6821 39.5447 17.4286 39.5447C21.175 39.5447 24.2204 42.5976 24.2204 46.3365V59.7543H29.4443H34.6681V46.3365C34.6681 36.831 26.9341 29.097 17.4286 29.097C15.0164 29.097 12.7173 29.5945 10.6367 30.4915V0H0.196533V46.329V59.7468L10.6367 59.7543Z" fill="#00C57E"/>
</svg>
