<svg width="156" height="36" viewBox="0 0 156 36" fill="none" xmlns="http://www.w3.org/2000/svg">
<path d="M8.47505 7.93945H8.08535V10.2136V12.4878H8.47505C14.0945 12.4878 18.1454 17.0657 18.1454 22.697V31.4524H0V33.7266V36.0008H22.6842V22.7003C22.6842 14.5618 16.5931 7.93945 8.47505 7.93945Z" fill="#00C57E"/>
<path d="M4.62145 28.5673V22.726C4.62145 21.0983 5.94446 19.7692 7.57201 19.7692C9.19955 19.7692 10.5226 21.0983 10.5226 22.726V28.5673H12.792H15.0614V22.726C15.0614 18.5878 11.7015 15.2208 7.57201 15.2208C6.52409 15.2208 5.52528 15.4374 4.62145 15.828V2.55371H0.0859375V22.7227V28.564L4.62145 28.5673Z" fill="#00C57E"/>
<path d="M46.5643 19.6702C45.5229 19.6702 44.5176 19.6702 43.4304 19.6702C43.4304 18.2459 43.4304 16.8545 43.4304 15.4139C42.2056 15.4139 41.0627 15.4139 39.8413 15.4139C39.8413 16.8381 39.8413 18.2262 39.8413 19.6603C38.7409 19.6603 37.7192 19.6603 36.6582 19.6603C36.6582 15.7256 36.6582 11.8139 36.6582 7.8464C37.6799 7.8464 38.7016 7.8464 39.8052 7.8464C39.8052 9.39206 39.8052 10.9246 39.8052 12.5063C41.0333 12.5063 42.1761 12.5063 43.4075 12.5063C43.4075 10.9607 43.4075 9.42816 43.4075 7.83984C44.4947 7.83984 45.4967 7.83984 46.561 7.83984C46.5643 11.7581 46.5643 15.683 46.5643 19.6702Z" fill="#00C57E"/>
<path d="M51.4361 17.8292C51.2167 18.4855 51.0202 19.0795 50.8205 19.68C49.7267 19.68 48.6722 19.68 47.5195 19.68C48.9539 15.7092 50.3718 11.7909 51.7996 7.83984C52.8214 7.83984 53.8234 7.83984 54.8746 7.83984C56.2828 11.7483 57.6942 15.6731 59.1285 19.6603C58.002 19.6603 56.9541 19.6603 55.8407 19.6603C55.6507 19.0729 55.451 18.4625 55.2447 17.8259C53.9741 17.8292 52.7297 17.8292 51.4361 17.8292ZM54.4358 15.1087C54.069 13.9634 53.7416 12.9395 53.4141 11.9189C53.3551 11.9255 53.2995 11.9288 53.2405 11.9353C52.9196 12.9723 52.5954 14.0126 52.2548 15.112C53.0211 15.1087 53.6597 15.1087 54.4358 15.1087Z" fill="#00C57E"/>
<path d="M71.8588 19.6874C70.7781 19.6874 69.7466 19.6874 68.5742 19.6874C70.0184 15.6936 71.4396 11.7622 72.8641 7.82422C73.899 7.82422 74.8814 7.82422 75.9227 7.82422C77.3374 11.7523 78.7521 15.6772 80.1865 19.6644C79.0534 19.6644 78.0055 19.6644 76.9117 19.6644C76.712 19.0606 76.5089 18.4469 76.3059 17.8299C75.0222 17.8299 73.7745 17.8299 72.5006 17.8299C72.2878 18.4436 72.0847 19.031 71.8588 19.6874ZM74.4688 11.8672C74.4131 11.8705 74.3574 11.8705 74.3017 11.8738C73.9808 12.9239 73.6632 13.974 73.3226 15.0898C74.0922 15.0898 74.7439 15.0898 75.4676 15.0898C75.1204 13.9642 74.793 12.914 74.4688 11.8672Z" fill="#00C57E"/>
<path d="M81.0352 7.82422C82.0994 7.82422 83.0819 7.82422 84.1494 7.82422C84.1494 10.8368 84.1494 13.8198 84.1494 16.8947C85.7639 16.8947 88.8716 16.8947 88.8716 16.8947V19.6677C88.8716 19.6677 83.6615 19.6677 81.0352 19.6677C81.0352 15.7166 81.0352 11.8081 81.0352 7.82422Z" fill="#00C57E"/>
<path d="M60.0039 7.82129C61.0649 7.82129 62.0473 7.82129 63.1149 7.82129C63.1149 10.8338 63.1149 13.8201 63.1149 16.8983C64.7228 16.8983 66.2521 16.8983 67.824 16.8983C67.824 17.873 67.824 18.7557 67.824 19.6746C65.2042 19.6746 62.6303 19.6746 60.0039 19.6746C60.0039 15.7366 60.0039 11.8118 60.0039 7.82129Z" fill="#00C57E"/>
<path d="M123.786 35.3605C122.754 35.3605 121.772 35.3605 120.734 35.3605C120.734 33.4768 120.734 31.626 120.734 29.7718C120.675 29.7489 120.616 29.7259 120.557 29.7029C119.925 30.8646 119.293 32.0263 118.651 33.2045C117.989 33.2045 117.341 33.2045 116.607 33.2045C116.002 32.0821 115.376 30.9237 114.751 29.762C114.711 29.7653 114.672 29.7686 114.633 29.7751C114.633 31.6096 114.633 33.444 114.633 35.3342C113.545 35.3342 112.547 35.3342 111.492 35.3342C111.492 31.4324 111.492 27.5075 111.492 23.5302C112.52 23.5302 113.545 23.5302 114.656 23.5302C115.609 25.4138 116.584 27.35 117.636 29.4306C118.664 27.3763 119.63 25.4434 120.599 23.5039C121.654 23.5039 122.685 23.5039 123.782 23.5039C123.786 27.4419 123.786 31.3667 123.786 35.3605Z" fill="#00C57E"/>
<path d="M135.322 23.501C136.416 23.501 137.425 23.501 138.469 23.501C139.743 25.6505 141.017 27.7999 142.288 29.9461C142.343 29.9297 142.402 29.9166 142.458 29.9002C142.458 27.7934 142.458 25.6865 142.458 23.5272C143.548 23.5272 144.547 23.5272 145.595 23.5272C145.595 27.4652 145.595 31.39 145.595 35.3543C144.514 35.3543 143.46 35.3543 142.347 35.3543C141.102 33.2803 139.848 31.1833 138.59 29.0896C138.538 29.1093 138.489 29.1257 138.437 29.1454C138.437 31.1866 138.437 33.231 138.437 35.3313C137.379 35.3313 136.38 35.3313 135.322 35.3313C135.322 31.4196 135.322 27.4915 135.322 23.501Z" fill="#00C57E"/>
<path d="M93.6834 35.5534C90.0255 35.5108 87.5334 32.9872 87.5727 29.3675C87.6153 25.7249 90.1696 23.2768 93.893 23.3129C97.4788 23.3457 99.9807 25.9185 99.9152 29.5021C99.8498 33.171 97.3544 35.5961 93.6834 35.5534ZM93.6932 32.6164C95.3273 32.6492 96.5783 31.3037 96.611 29.4824C96.6405 27.6906 95.383 26.2631 93.7718 26.2631C92.1868 26.2598 90.9031 27.6315 90.8704 29.3675C90.8376 31.1265 92.1017 32.5835 93.6932 32.6164Z" fill="#00C57E"/>
<path d="M36.6602 35.39C36.6602 31.4061 36.6602 27.5009 36.6602 23.6056C36.706 23.5662 36.742 23.5072 36.7781 23.5072C38.5104 23.5269 40.2591 23.4087 41.9751 23.6023C45.1549 23.9666 47.0804 26.3163 47.028 29.5159C46.9691 33.0896 44.7291 35.3408 41.1629 35.3867C39.6729 35.4064 38.1862 35.39 36.6602 35.39ZM39.722 32.5087C41.3267 32.7942 42.5645 32.3085 43.2784 31.137C43.9694 30.0081 43.8515 28.4099 43.0001 27.3204C42.2895 26.4114 40.9828 26.0636 39.722 26.4541C39.722 28.4723 39.722 30.4938 39.722 32.5087Z" fill="#00C57E"/>
<path d="M125.682 23.5195C128.308 23.5195 130.856 23.5195 133.446 23.5195C133.446 24.4482 133.446 25.331 133.446 26.3122C131.874 26.3122 130.319 26.3122 128.727 26.3122C128.727 26.9489 128.727 27.4903 128.727 28.1073C129.955 28.1073 131.15 28.1073 132.398 28.1073C132.398 29.036 132.398 29.8958 132.398 30.854C131.193 30.854 129.981 30.854 128.727 30.854C128.727 31.4742 128.727 31.9927 128.727 32.5867C130.43 32.5867 132.11 32.5867 133.832 32.5867C133.832 33.5417 133.832 34.4212 133.832 35.3466C131.114 35.3466 128.423 35.3466 125.682 35.3466C125.682 31.4184 125.682 27.4903 125.682 23.5195Z" fill="#00C57E"/>
<path d="M69.6074 23.5137C72.2338 23.5137 74.7848 23.5137 77.3882 23.5137C77.3882 24.4325 77.3882 25.312 77.3882 26.2899C75.8262 26.2899 74.2707 26.2899 72.666 26.2899C72.666 26.9266 72.666 27.468 72.666 28.1112C73.881 28.1112 75.0959 28.1112 76.3501 28.1112C76.3501 29.0662 76.3501 29.9227 76.3501 30.8547C75.1221 30.8547 73.9268 30.8547 72.6726 30.8547C72.6726 31.4454 72.6726 31.9639 72.6726 32.5808C74.346 32.5808 76.0423 32.5808 77.7714 32.5808C77.7714 33.5588 77.7714 34.4383 77.7714 35.3571C75.0402 35.3571 72.3484 35.3571 69.6074 35.3571C69.6074 31.4159 69.6074 27.491 69.6074 23.5137Z" fill="#00C57E"/>
<path d="M56.2111 23.5365C56.2111 24.4685 56.2111 25.3512 56.2111 26.3029C54.6327 26.3029 53.0936 26.3029 51.5053 26.3029C51.5053 26.9166 51.5053 27.458 51.5053 28.0783C52.6908 28.0783 53.886 28.0783 55.1468 28.0783C55.1468 29.0267 55.1468 29.8996 55.1468 30.8545C53.945 30.8545 52.7497 30.8545 51.5053 30.8545C51.5053 31.4518 51.5053 31.9703 51.5053 32.5643C53.1787 32.5643 54.8554 32.5643 56.591 32.5643C56.591 33.516 56.591 34.3954 56.591 35.334C53.8926 35.334 51.1811 35.334 48.4336 35.334C48.4336 31.4091 48.4336 27.5007 48.4336 23.5332C51.001 23.5365 53.5684 23.5365 56.2111 23.5365Z" fill="#00C57E"/>
<path d="M104.376 35.3587C103.305 35.3587 102.349 35.3587 101.344 35.3587C101.344 31.424 101.344 27.4992 101.344 23.5218C101.557 23.5054 101.766 23.4792 101.973 23.4792C103.371 23.4759 104.772 23.4463 106.167 23.4923C108.643 23.571 109.999 24.8936 110.186 27.3351C110.379 29.8718 108.922 31.5651 106.377 31.7325C105.735 31.7752 105.087 31.7391 104.376 31.7391C104.376 32.9762 104.376 34.1248 104.376 35.3587ZM104.389 28.9956C105.257 28.9858 106.135 29.1794 106.711 28.3458C107.025 27.8962 107.029 27.3613 106.682 26.9249C106.079 26.1668 105.237 26.239 104.389 26.2784C104.389 27.2137 104.389 28.0702 104.389 28.9956Z" fill="#00C57E"/>
<path d="M62.9826 30.5955C63.7161 28.2491 64.4497 25.906 65.1931 23.5235C66.3097 23.5235 67.4035 23.5235 68.6021 23.5235C67.1579 27.5041 65.7367 31.4224 64.3089 35.3604C63.369 35.3604 62.4586 35.3604 61.4828 35.3604C60.055 31.4388 58.6239 27.5107 57.1699 23.5137C58.3587 23.5137 59.4393 23.5137 60.6117 23.5137C61.3354 25.8666 62.0689 28.2458 62.7992 30.625C62.8614 30.6119 62.9237 30.602 62.9826 30.5955Z" fill="#00C57E"/>
<path d="M149.872 26.3391C148.844 26.3391 147.913 26.3391 146.918 26.3391C146.918 25.371 146.918 24.4718 146.918 23.5234C149.931 23.5234 152.934 23.5234 155.999 23.5234C155.999 24.4095 155.999 25.3152 155.999 26.2899C155.066 26.2899 154.109 26.2899 153.061 26.2899C153.061 29.3385 153.061 32.3346 153.061 35.3603C151.971 35.3603 150.969 35.3603 149.872 35.3603C149.872 32.3839 149.872 29.3877 149.872 26.3391Z" fill="#00C57E"/>
<path d="M79.2754 23.5068C80.3266 23.5068 81.309 23.5068 82.3831 23.5068C82.3831 26.5128 82.3831 29.5024 82.3831 32.5642C83.9812 32.5642 85.4908 32.5642 87.0595 32.5642C87.0595 33.5191 87.0595 34.3986 87.0595 35.3339C84.4888 35.3339 81.9017 35.3339 79.2786 35.3339C79.2754 31.4058 79.2754 27.4973 79.2754 23.5068Z" fill="#00C57E"/>
<path d="M132.218 18.9745L128.989 16.7101V5.8807L127.852 4.83386L124.66 6.42546V18.9121L121.247 16.7265V2.79924L119.783 1.53581L115.382 3.46541V17.6388H114.072V2.60562L120.016 0L122.557 2.1987V16.0078L123.35 16.5165V5.61489L128.075 3.25539L130.299 5.30313V16.0275L130.908 16.4509V7.70202L135.099 5.52301L137.094 7.46902V14.9315L139.943 13.6319L140.483 14.8265L135.784 16.9694V8.02361L134.86 7.12444L132.218 8.49945V18.9745Z" fill="#00C57E"/>
<path d="M115.382 19.9264H114.072V14.9547L110.872 13.2482V10.8362L108.636 9.45137L108.655 7.1575L108.688 6.98685C108.695 6.95731 108.695 6.92778 108.695 6.89496C108.695 6.07783 107.971 5.24758 106.582 5.24758C105.142 5.24758 104.097 6.12378 103.665 7.02951V7.14109L102.122 8.87379L101.788 8.8377C99.0603 8.54891 98.0681 8.82129 97.7635 8.95583V10.5081L97.2723 10.636C97.2265 10.6492 96.1032 10.9379 94.7442 11.1972C94.2301 11.2956 94.0074 11.4204 93.9222 11.4827V13.8061L88.8431 14.9284V18.0394H87.5332V13.8717L92.6123 12.7494V11.3219C92.6123 11.0758 92.7499 10.2422 94.5019 9.90751C95.2911 9.75655 96.005 9.59247 96.4569 9.48746V8.5686L96.4831 8.47672C96.6763 7.82039 97.7242 7.12796 101.595 7.4955L102.453 6.53398C103.046 5.22132 104.532 3.93164 106.586 3.93164C108.806 3.93164 110.008 5.45761 110.008 6.89168C110.008 6.99013 110.001 7.08202 109.985 7.17719C109.982 7.21985 109.975 7.26579 109.965 7.31173L109.955 8.72284L112.186 10.1044V12.4606L115.385 14.1671V19.9264H115.382Z" fill="#00C57E"/>
<path d="M109.952 9.02539H108.643V19.927H109.952V9.02539Z" fill="#00C57E"/>
<path d="M104.431 5.63184H103.121V19.9267H104.431V5.63184Z" fill="#00C57E"/>
<path d="M103.637 10.5105L92.918 12.6553L93.1744 13.9425L103.893 11.7976L103.637 10.5105Z" fill="#00C57E"/>
<path d="M109.58 11.1961L109.004 12.375L112.121 13.9049L112.698 12.726L109.58 11.1961Z" fill="#00C57E"/>
<path d="M150.37 19.9264H149.06V9.85834L147.38 8.62116L140.775 11.5024V19.9264H139.465V10.6394L147.55 7.11816L150.37 9.19216V19.9264Z" fill="#00C57E"/>
<path d="M153.655 19.9261H152.345V15.1939L149.365 12.9854L150.145 11.9287L153.655 14.5311V19.9261Z" fill="#00C57E"/>
<path d="M155.979 19.9261H154.669V18.538L152.596 16.9169L153.401 15.8799L155.979 17.8981V19.9261Z" fill="#00C57E"/>
</svg>
