<svg width="242" height="44" viewBox="0 0 242 44" fill="none" xmlns="http://www.w3.org/2000/svg">
<path d="M10.3803 9.70288H9.90301V12.4825V15.262H10.3803C17.2631 15.262 22.2246 20.8573 22.2246 27.7401V38.4413H0V41.2208V44.0004H27.7838V27.7441C27.7838 17.797 20.3234 9.70288 10.3803 9.70288Z" fill="#00C57E"/>
<path d="M5.65963 34.9158V27.7763C5.65963 25.7869 7.28006 24.1625 9.27349 24.1625C11.2669 24.1625 12.8874 25.7869 12.8874 27.7763V34.9158H15.6669H18.4465V27.7763C18.4465 22.7185 14.3313 18.6033 9.27349 18.6033C7.98999 18.6033 6.76665 18.868 5.65963 19.3453V3.12109H0.104492V27.7723V34.9118L5.65963 34.9158Z" fill="#00C57E"/>
<path d="M107.033 24.0415C105.757 24.0415 104.526 24.0415 103.194 24.0415C103.194 22.3007 103.194 20.6001 103.194 18.8393C101.694 18.8393 100.294 18.8393 98.798 18.8393C98.798 20.58 98.798 22.2766 98.798 24.0294C97.4504 24.0294 96.199 24.0294 94.8994 24.0294C94.8994 19.2203 94.8994 14.4393 94.8994 9.59005C96.1508 9.59005 97.4022 9.59005 98.7539 9.59005C98.7539 11.4792 98.7539 13.3523 98.7539 15.2856C100.258 15.2856 101.658 15.2856 103.166 15.2856C103.166 13.3964 103.166 11.5233 103.166 9.58203C104.498 9.58203 105.725 9.58203 107.028 9.58203C107.033 14.3711 107.033 19.1682 107.033 24.0415Z" fill="#00C57E"/>
<path d="M113.001 21.7913C112.732 22.5935 112.491 23.3195 112.247 24.0535C110.907 24.0535 109.615 24.0535 108.204 24.0535C109.96 19.2003 111.697 14.4112 113.446 9.58203C114.697 9.58203 115.925 9.58203 117.212 9.58203C118.937 14.3591 120.666 19.1561 122.422 24.0294C121.043 24.0294 119.759 24.0294 118.395 24.0294C118.163 23.3115 117.918 22.5654 117.665 21.7873C116.109 21.7913 114.585 21.7913 113.001 21.7913ZM116.675 18.4663C116.225 17.0664 115.824 15.815 115.423 14.5676C115.351 14.5756 115.283 14.5797 115.211 14.5877C114.818 15.8551 114.421 17.1266 114.003 18.4703C114.942 18.4663 115.724 18.4663 116.675 18.4663Z" fill="#00C57E"/>
<path d="M138.013 24.0618C136.69 24.0618 135.426 24.0618 133.99 24.0618C135.759 19.1805 137.5 14.3754 139.245 9.56226C140.512 9.56226 141.715 9.56226 142.991 9.56226C144.723 14.3634 146.456 19.1604 148.213 24.0337C146.825 24.0337 145.542 24.0337 144.202 24.0337C143.957 23.2957 143.709 22.5457 143.46 21.7916C141.888 21.7916 140.36 21.7916 138.799 21.7916C138.539 22.5417 138.29 23.2596 138.013 24.0618ZM141.21 14.5037C141.142 14.5077 141.074 14.5077 141.005 14.5118C140.612 15.7953 140.223 17.0788 139.806 18.4425C140.749 18.4425 141.547 18.4425 142.433 18.4425C142.008 17.0667 141.607 15.7832 141.21 14.5037Z" fill="#00C57E"/>
<path d="M149.252 9.56226C150.556 9.56226 151.759 9.56226 153.066 9.56226C153.066 13.2443 153.066 16.8902 153.066 20.6485C155.044 20.6485 158.85 20.6485 158.85 20.6485V24.0377C158.85 24.0377 152.469 24.0377 149.252 24.0377C149.252 19.2086 149.252 14.4315 149.252 9.56226Z" fill="#00C57E"/>
<path d="M123.494 9.55835C124.793 9.55835 125.996 9.55835 127.304 9.55835C127.304 13.2404 127.304 16.8903 127.304 20.6526C129.273 20.6526 131.147 20.6526 133.072 20.6526C133.072 21.8439 133.072 22.9228 133.072 24.0459C129.863 24.0459 126.71 24.0459 123.494 24.0459C123.494 19.2327 123.494 14.4357 123.494 9.55835Z" fill="#00C57E"/>
<path d="M201.614 43.2178C200.351 43.2178 199.147 43.2178 197.876 43.2178C197.876 40.9156 197.876 38.6534 197.876 36.3872C197.804 36.3591 197.732 36.3311 197.659 36.303C196.885 37.7229 196.111 39.1427 195.325 40.5827C194.515 40.5827 193.721 40.5827 192.822 40.5827C192.08 39.2109 191.314 37.7951 190.548 36.3752C190.5 36.3792 190.452 36.3832 190.404 36.3912C190.404 38.6333 190.404 40.8755 190.404 43.1858C189.072 43.1858 187.849 43.1858 186.557 43.1858C186.557 38.4168 186.557 33.6197 186.557 28.7584C187.817 28.7584 189.072 28.7584 190.432 28.7584C191.599 31.0607 192.794 33.4272 194.082 35.9701C195.341 33.4592 196.524 31.0968 197.712 28.7263C199.003 28.7263 200.267 28.7263 201.61 28.7263C201.614 33.5394 201.614 38.3365 201.614 43.2178Z" fill="#00C57E"/>
<path d="M215.745 28.7224C217.085 28.7224 218.32 28.7224 219.6 28.7224C221.16 31.3496 222.72 33.9767 224.276 36.5999C224.345 36.5798 224.417 36.5638 224.485 36.5437C224.485 33.9687 224.485 31.3937 224.485 28.7545C225.821 28.7545 227.044 28.7545 228.327 28.7545C228.327 33.5676 228.327 38.3647 228.327 43.2099C227.004 43.2099 225.712 43.2099 224.349 43.2099C222.824 40.675 221.288 38.112 219.748 35.553C219.684 35.5771 219.624 35.5972 219.56 35.6212C219.56 38.116 219.56 40.6148 219.56 43.1818C218.264 43.1818 217.041 43.1818 215.745 43.1818C215.745 38.4008 215.745 33.5997 215.745 28.7224Z" fill="#00C57E"/>
<path d="M164.746 43.4544C160.266 43.4023 157.213 40.3179 157.261 35.8938C157.313 31.4417 160.442 28.4495 165.002 28.4936C169.394 28.5338 172.459 31.6783 172.379 36.0583C172.298 40.5425 169.242 43.5066 164.746 43.4544ZM164.758 39.8647C166.759 39.9048 168.291 38.2603 168.332 36.0342C168.368 33.8442 166.827 32.0995 164.854 32.0995C162.913 32.0955 161.34 33.772 161.3 35.8938C161.26 38.0437 162.808 39.8246 164.758 39.8647Z" fill="#00C57E"/>
<path d="M94.9033 43.254C94.9033 38.3847 94.9033 33.6117 94.9033 28.8507C94.9595 28.8026 95.0036 28.7304 95.0477 28.7304C97.1695 28.7544 99.3113 28.6101 101.413 28.8467C105.308 29.2919 107.666 32.1637 107.602 36.0744C107.53 40.4423 104.786 43.1938 100.418 43.25C98.5934 43.2741 96.7724 43.254 94.9033 43.254ZM98.6536 39.7324C100.619 40.0813 102.135 39.4877 103.009 38.0558C103.856 36.6761 103.711 34.7227 102.669 33.3911C101.798 32.2801 100.198 31.8549 98.6536 32.3322C98.6536 34.7989 98.6536 37.2697 98.6536 39.7324Z" fill="#00C57E"/>
<path d="M203.937 28.7466C207.153 28.7466 210.274 28.7466 213.446 28.7466C213.446 29.8817 213.446 30.9606 213.446 32.1599C211.521 32.1599 209.616 32.1599 207.667 32.1599C207.667 32.938 207.667 33.5998 207.667 34.3539C209.171 34.3539 210.635 34.3539 212.163 34.3539C212.163 35.489 212.163 36.5398 212.163 37.711C210.687 37.711 209.203 37.711 207.667 37.711C207.667 38.4691 207.667 39.1028 207.667 39.8288C209.752 39.8288 211.81 39.8288 213.92 39.8288C213.92 40.996 213.92 42.0709 213.92 43.202C210.591 43.202 207.294 43.202 203.937 43.202C203.937 38.4009 203.937 33.5998 203.937 28.7466Z" fill="#00C57E"/>
<path d="M135.257 28.7385C138.474 28.7385 141.599 28.7385 144.787 28.7385C144.787 29.8616 144.787 30.9365 144.787 32.1318C142.874 32.1318 140.969 32.1318 139.004 32.1318C139.004 32.9099 139.004 33.5717 139.004 34.3578C140.492 34.3578 141.98 34.3578 143.516 34.3578C143.516 35.525 143.516 36.5719 143.516 37.711C142.012 37.711 140.548 37.711 139.012 37.711C139.012 38.433 139.012 39.0667 139.012 39.8207C141.061 39.8207 143.139 39.8207 145.257 39.8207C145.257 41.016 145.257 42.0909 145.257 43.214C141.911 43.214 138.614 43.214 135.257 43.214C135.257 38.3969 135.257 33.5998 135.257 28.7385Z" fill="#00C57E"/>
<path d="M118.849 28.7667C118.849 29.9058 118.849 30.9848 118.849 32.1479C116.915 32.1479 115.03 32.1479 113.085 32.1479C113.085 32.898 113.085 33.5598 113.085 34.3178C114.537 34.3178 116.001 34.3178 117.545 34.3178C117.545 35.477 117.545 36.5439 117.545 37.7111C116.073 37.7111 114.609 37.7111 113.085 37.7111C113.085 38.4411 113.085 39.0748 113.085 39.8008C115.135 39.8008 117.188 39.8008 119.314 39.8008C119.314 40.964 119.314 42.0389 119.314 43.186C116.009 43.186 112.688 43.186 109.323 43.186C109.323 38.3889 109.323 33.6119 109.323 28.7627C112.467 28.7667 115.612 28.7667 118.849 28.7667Z" fill="#00C57E"/>
<path d="M177.842 43.2176C176.53 43.2176 175.359 43.2176 174.127 43.2176C174.127 38.4085 174.127 33.6114 174.127 28.7501C174.388 28.7301 174.645 28.698 174.898 28.698C176.61 28.694 178.327 28.6579 180.036 28.714C183.068 28.8103 184.728 30.4267 184.957 33.4108C185.194 36.5113 183.409 38.5809 180.292 38.7855C179.506 38.8376 178.712 38.7935 177.842 38.7935C177.842 40.3056 177.842 41.7095 177.842 43.2176ZM177.858 35.4404C178.921 35.4283 179.995 35.665 180.701 34.6462C181.086 34.0967 181.09 33.4429 180.665 32.9095C179.927 31.9829 178.896 32.0712 177.858 32.1193C177.858 33.2624 177.858 34.3093 177.858 35.4404Z" fill="#00C57E"/>
<path d="M127.143 37.3941C128.042 34.5263 128.94 31.6625 129.851 28.7506C131.218 28.7506 132.558 28.7506 134.026 28.7506C132.257 33.6158 130.517 38.4049 128.768 43.218C127.617 43.218 126.502 43.218 125.306 43.218C123.558 38.4249 121.805 33.6238 120.024 28.7385C121.48 28.7385 122.804 28.7385 124.239 28.7385C125.126 31.6144 126.024 34.5223 126.919 37.4302C126.995 37.4142 127.071 37.4021 127.143 37.3941Z" fill="#00C57E"/>
<path d="M233.566 32.1919C232.306 32.1919 231.167 32.1919 229.948 32.1919C229.948 31.0086 229.948 29.9096 229.948 28.7505C233.638 28.7505 237.316 28.7505 241.07 28.7505C241.07 29.8334 241.07 30.9405 241.07 32.1317C239.927 32.1317 238.756 32.1317 237.472 32.1317C237.472 35.8579 237.472 39.5199 237.472 43.2179C236.137 43.2179 234.909 43.2179 233.566 43.2179C233.566 39.58 233.566 35.918 233.566 32.1919Z" fill="#00C57E"/>
<path d="M147.098 28.7305C148.385 28.7305 149.588 28.7305 150.904 28.7305C150.904 32.4045 150.904 36.0585 150.904 39.8007C152.861 39.8007 154.71 39.8007 156.632 39.8007C156.632 40.9678 156.632 42.0428 156.632 43.1859C153.483 43.1859 150.314 43.1859 147.102 43.1859C147.098 38.3848 147.098 33.6078 147.098 28.7305Z" fill="#00C57E"/>
<path d="M211.942 23.1912L207.988 20.4237V7.1876L206.596 5.90811L202.685 7.85342V23.115L198.506 20.4438V3.42133L196.713 1.87712L191.322 4.23555V21.5588H189.718V3.18468L196.998 0L200.11 2.68733V19.5654L201.081 20.1871V6.86272L206.869 3.97885L209.592 6.48167V19.5894L210.338 20.1068V9.41367L215.472 6.75041L217.915 9.12889V18.2498L221.404 16.6614L222.066 18.1214L216.31 20.7406V9.80674L215.179 8.70775L211.942 10.3883V23.1912Z" fill="#00C57E"/>
<path d="M191.322 24.3542H189.718V18.2777L185.799 16.192V13.244L183.06 11.5513L183.084 8.74769L183.124 8.53911C183.132 8.50302 183.132 8.46692 183.132 8.42681C183.132 7.42809 182.246 6.41332 180.545 6.41332C178.78 6.41332 177.501 7.48424 176.971 8.59126V8.72763L175.082 10.8454L174.673 10.8013C171.332 10.4483 170.117 10.7812 169.744 10.9457V12.8429L169.142 12.9993C169.086 13.0153 167.71 13.3683 166.045 13.6851C165.416 13.8055 165.143 13.9579 165.039 14.0341V16.8738L158.818 18.2456V22.048H157.213V16.9541L163.434 15.5823V13.8376C163.434 13.5367 163.603 12.518 165.749 12.1088C166.715 11.9243 167.59 11.7238 168.143 11.5954V10.4724L168.175 10.3601C168.412 9.5579 169.695 8.71159 174.436 9.16081L175.487 7.9856C176.213 6.38123 178.034 4.80493 180.549 4.80493C183.268 4.80493 184.74 6.67002 184.74 8.4228C184.74 8.54313 184.732 8.65543 184.712 8.77175C184.708 8.82389 184.7 8.88005 184.688 8.9362L184.676 10.6609L187.408 12.3495V15.2294L191.326 17.3151V24.3542H191.322Z" fill="#00C57E"/>
<path d="M184.672 11.03H183.068V24.3544H184.672V11.03Z" fill="#00C57E"/>
<path d="M177.91 6.88257H176.306V24.3542H177.91V6.88257Z" fill="#00C57E"/>
<path d="M176.936 12.8483L163.808 15.4697L164.122 17.043L177.251 14.4215L176.936 12.8483Z" fill="#00C57E"/>
<path d="M184.216 13.6856L183.51 15.1265L187.329 16.9963L188.034 15.5554L184.216 13.6856Z" fill="#00C57E"/>
<path d="M234.175 24.3549H232.571V12.0493L230.513 10.5372L222.423 14.0588V24.3549H220.819V13.0039L230.722 8.7002L234.175 11.2351V24.3549Z" fill="#00C57E"/>
<path d="M238.198 24.3547H236.594V18.571L232.944 15.8716L233.898 14.5801L238.198 17.7607V24.3547Z" fill="#00C57E"/>
<path d="M241.046 24.3547H239.442V22.658L236.903 20.6766L237.89 19.4092L241.046 21.8759V24.3547Z" fill="#00C57E"/>
</svg>
