<svg width="28" height="28" viewBox="0 0 28 28" fill="none" xmlns="http://www.w3.org/2000/svg">
<path d="M26.037 6.34793C26.037 5.0512 24.9858 4 23.689 4H4.34793C3.0512 4 2 5.0512 2 6.34793V21.6521C2 22.9488 3.0512 24 4.34793 24H23.689C24.9858 24 26.037 22.9488 26.037 21.6521V6.34793ZM4.36051 5.87633H23.7074C23.9664 5.87633 24.1748 6.08284 24.1748 6.34181V6.36217L14.3655 16.1725C14.2459 16.2922 14.1067 16.3101 14.0341 16.3101C13.9615 16.3101 13.8218 16.2922 13.7021 16.1725L3.89055 6.36084V6.34181C3.89055 6.08284 4.10158 5.87633 4.36051 5.87633ZM23.7074 22.1237H4.36051C4.10158 22.1237 3.89055 21.9093 3.89055 21.6503V9.01721L12.3742 17.5007C12.8177 17.9442 13.4074 18.1884 14.0345 18.1884C14.6617 18.1883 15.2503 17.9441 15.6937 17.5007L24.1748 9.01854V21.6503C24.1748 21.9093 23.9664 22.1237 23.7074 22.1237Z" fill="#00C57E"/>
</svg>
