<svg width="42" height="42" viewBox="0 0 42 42" fill="none" xmlns="http://www.w3.org/2000/svg">
<path d="M22.3125 30.9375C23.1409 30.9375 23.8125 31.6091 23.8125 32.4375C23.8125 33.2659 23.1409 33.9375 22.3125 33.9375H19.6875C18.8591 33.9375 18.1875 33.2659 18.1875 32.4375C18.1875 31.6091 18.8591 30.9375 19.6875 30.9375H22.3125Z" fill="#00C57E"/>
<path fill-rule="evenodd" clip-rule="evenodd" d="M28.6875 2.8125H13.3125C11.0343 2.8125 9.1875 4.65933 9.1875 6.9375V35.0625C9.1875 37.3407 11.0343 39.1875 13.3125 39.1875H28.6875C30.9657 39.1875 32.8125 37.3407 32.8125 35.0625V6.9375C32.8125 4.65933 30.9657 2.8125 28.6875 2.8125ZM29.8125 6.9375C29.8125 6.31618 29.3088 5.8125 28.6875 5.8125H26.25V6.9375C26.25 8.03152 25.8154 9.08073 25.0418 9.85432C24.2682 10.6279 23.219 11.0625 22.125 11.0625H19.875C18.781 11.0625 17.7318 10.6279 16.9582 9.85432C16.1846 9.08073 15.75 8.03152 15.75 6.9375V5.8125H13.3125C12.6912 5.8125 12.1875 6.31618 12.1875 6.9375V35.0625C12.1875 35.6838 12.6912 36.1875 13.3125 36.1875H28.6875C29.3088 36.1875 29.8125 35.6838 29.8125 35.0625V6.9375ZM23.25 6.9375V5.8125H18.75V6.9375C18.75 7.23587 18.8685 7.52202 19.0795 7.733C19.2905 7.94397 19.5766 8.0625 19.875 8.0625H22.125C22.4234 8.0625 22.7095 7.94397 22.9205 7.733C23.1315 7.52202 23.25 7.23587 23.25 6.9375Z" fill="#00C57E"/>
</svg>
