<svg width="26" height="26" viewBox="0 0 26 26" fill="none" xmlns="http://www.w3.org/2000/svg">
<path d="M16.266 12.8604C15.8605 12.5417 15.257 12.2862 14.4706 12.1011L12.7457 11.6944C12.4679 11.63 12.2417 11.5714 12.0531 11.5163C11.8615 11.4676 11.6756 11.3984 11.4988 11.3101C11.3898 11.2598 11.2981 11.1782 11.2356 11.0758C11.173 10.9733 11.1422 10.8546 11.1472 10.7347C11.1418 10.5959 11.174 10.4583 11.2405 10.3364C11.3069 10.2145 11.4051 10.1128 11.5246 10.0421C11.6835 9.94145 11.8588 9.86928 12.0425 9.82881C12.2557 9.78189 12.4735 9.75948 12.6917 9.76201C13.0554 9.75121 13.4172 9.81751 13.7535 9.95654L13.8062 9.98232C14.049 10.0963 14.2431 10.2933 14.3535 10.5378C14.446 10.7528 14.5989 10.9363 14.7935 11.0663C14.9882 11.1963 15.2163 11.2671 15.4503 11.2702H15.523C15.7237 11.2704 15.9211 11.2198 16.0969 11.1231C16.2727 11.0264 16.4212 10.8867 16.5285 10.7171C16.6354 10.5505 16.6983 10.3594 16.7114 10.1619C16.7246 9.96436 16.6874 9.76671 16.6035 9.5874C16.3922 9.13333 16.0697 8.73993 15.666 8.44365C15.1981 8.09857 14.6657 7.85109 14.1003 7.71592V7.39014C14.1003 7.07934 13.9769 6.78126 13.7571 6.5615C13.5373 6.34173 13.2393 6.21826 12.9285 6.21826C12.6177 6.21826 12.3196 6.34173 12.0998 6.5615C11.8801 6.78126 11.7566 7.07934 11.7566 7.39014V7.65498C10.9609 7.78506 10.3128 8.071 9.82651 8.5081C9.48798 8.8028 9.21811 9.16808 9.0359 9.57826C8.85369 9.98845 8.76355 10.4336 8.77182 10.8823C8.77182 11.9265 9.14096 12.7093 9.86987 13.2085C10.2671 13.4839 10.9445 13.73 11.9382 13.9597L12.1117 13.9995L13.1769 14.2339C13.4113 14.2854 13.6164 14.3358 13.7921 14.3897C14.0265 14.4536 14.2523 14.5452 14.4648 14.6628C14.5636 14.7159 14.6456 14.7954 14.7017 14.8925C14.7578 14.9895 14.7857 15.1003 14.7824 15.2124C14.7824 15.6647 14.5539 15.9542 14.0652 16.1253C13.9819 16.1534 13.897 16.1765 13.8109 16.1944C13.5234 16.2506 13.2308 16.2769 12.9378 16.2729C12.6421 16.2777 12.3472 16.2418 12.0613 16.1663C11.7954 16.0998 11.5555 15.9553 11.3722 15.7515C11.2955 15.6551 11.2346 15.5471 11.1917 15.4315C11.131 15.2762 11.0393 15.1349 10.9223 15.016C10.8054 14.8971 10.6655 14.8032 10.5112 14.74C10.3568 14.6767 10.1913 14.6455 10.0245 14.648C9.85775 14.6506 9.69325 14.687 9.54097 14.755C9.38868 14.8231 9.25178 14.9213 9.13855 15.0437C9.02531 15.1662 8.9381 15.3103 8.88219 15.4674C8.82628 15.6246 8.80284 15.7914 8.81328 15.9579C8.82371 16.1243 8.86782 16.2869 8.94292 16.4358C9.1499 16.8519 9.44837 17.2156 9.81596 17.4999C10.3843 17.9294 11.0503 18.2113 11.7542 18.3202V18.6085C11.7542 18.9193 11.8777 19.2174 12.0975 19.4371C12.3172 19.6569 12.6153 19.7804 12.9261 19.7804C13.2369 19.7804 13.535 19.6569 13.7548 19.4371C13.9745 19.2174 14.098 18.9193 14.098 18.6085V18.346C14.9183 18.2147 15.5921 17.9241 16.1148 17.4776C16.4727 17.185 16.7598 16.8152 16.9546 16.3959C17.1494 15.9767 17.2469 15.5188 17.2398 15.0565C17.2363 14.1085 16.9105 13.369 16.266 12.8604Z" fill="#fff"/>
</svg>
