<svg width="0" height="0" class="hidden">
<symbol fill="none" xmlns="http://www.w3.org/2000/svg" viewBox="0 0 17 8" id="page-arrow">
    <path d="M0.646444 4.35355C0.451183 4.15829 0.451183 3.84171 0.646444 3.64645L3.82843 0.464466C4.02369 0.269204 4.34027 0.269204 4.53553 0.464466C4.73079 0.659728 4.73079 0.976311 4.53553 1.17157L1.7071 4L4.53553 6.82843C4.73079 7.02369 4.73079 7.34027 4.53553 7.53553C4.34027 7.7308 4.02369 7.7308 3.82843 7.53553L0.646444 4.35355ZM17 4.5L0.999998 4.5V3.5L17 3.5V4.5Z" fill="currentColor"></path>
  </symbol>

  <symbol fill="none" xmlns="http://www.w3.org/2000/svg" viewBox="0 0 27 27" id="view-icon-1">
    <path d="M0 0H11V11H0V6V0Z" fill="currentColor"></path>
    <path d="M0 16H11V27H0V22V16Z" fill="currentColor"></path>
    <path d="M16 0H27V11H16V6V0Z" fill="currentColor"></path>
    <path d="M16 16H27V27H16V23V16Z" fill="currentColor"></path>
  </symbol>
  <symbol fill="none" xmlns="http://www.w3.org/2000/svg" viewBox="0 0 26 21" id="view-icon-2">
    <path d="M0 9H26V12H0V10.5V9Z" fill="currentColor"></path>
    <path d="M0 0H26V3H0V1.5V0Z" fill="currentColor"></path>
    <path d="M0 18H26V21H0V19.5V18Z" fill="currentColor"></path>
  </symbol>
  <symbol fill="none" xmlns="http://www.w3.org/2000/svg" viewBox="0 0 242 44" id="logo-desktop">
    <path d="M10.3803 9.70288H9.90301V12.4825V15.262H10.3803C17.2631 15.262 22.2246 20.8573 22.2246 27.7401V38.4413H0V41.2208V44.0004H27.7838V27.7441C27.7838 17.797 20.3234 9.70288 10.3803 9.70288Z" fill="currentColor"></path>
    <path d="M5.65963 34.9158V27.7763C5.65963 25.7869 7.28006 24.1625 9.27349 24.1625C11.2669 24.1625 12.8874 25.7869 12.8874 27.7763V34.9158H15.6669H18.4465V27.7763C18.4465 22.7185 14.3313 18.6033 9.27349 18.6033C7.98999 18.6033 6.76665 18.868 5.65963 19.3453V3.12109H0.104492V27.7723V34.9118L5.65963 34.9158Z" fill="currentColor"></path>
    <path d="M107.033 24.0415C105.757 24.0415 104.526 24.0415 103.194 24.0415C103.194 22.3007 103.194 20.6001 103.194 18.8393C101.694 18.8393 100.294 18.8393 98.798 18.8393C98.798 20.58 98.798 22.2766 98.798 24.0294C97.4504 24.0294 96.199 24.0294 94.8994 24.0294C94.8994 19.2203 94.8994 14.4393 94.8994 9.59005C96.1508 9.59005 97.4022 9.59005 98.7539 9.59005C98.7539 11.4792 98.7539 13.3523 98.7539 15.2856C100.258 15.2856 101.658 15.2856 103.166 15.2856C103.166 13.3964 103.166 11.5233 103.166 9.58203C104.498 9.58203 105.725 9.58203 107.028 9.58203C107.033 14.3711 107.033 19.1682 107.033 24.0415Z" fill="currentColor"></path>
    <path d="M113.001 21.7913C112.732 22.5935 112.491 23.3195 112.247 24.0535C110.907 24.0535 109.615 24.0535 108.204 24.0535C109.96 19.2003 111.697 14.4112 113.446 9.58203C114.697 9.58203 115.925 9.58203 117.212 9.58203C118.937 14.3591 120.666 19.1561 122.422 24.0294C121.043 24.0294 119.759 24.0294 118.395 24.0294C118.163 23.3115 117.918 22.5654 117.665 21.7873C116.109 21.7913 114.585 21.7913 113.001 21.7913ZM116.675 18.4663C116.225 17.0664 115.824 15.815 115.423 14.5676C115.351 14.5756 115.283 14.5797 115.211 14.5877C114.818 15.8551 114.421 17.1266 114.003 18.4703C114.942 18.4663 115.724 18.4663 116.675 18.4663Z" fill="currentColor"></path>
    <path d="M138.013 24.0618C136.69 24.0618 135.426 24.0618 133.99 24.0618C135.759 19.1805 137.5 14.3754 139.245 9.56226C140.512 9.56226 141.715 9.56226 142.991 9.56226C144.723 14.3634 146.456 19.1604 148.213 24.0337C146.825 24.0337 145.542 24.0337 144.202 24.0337C143.957 23.2957 143.709 22.5457 143.46 21.7916C141.888 21.7916 140.36 21.7916 138.799 21.7916C138.539 22.5417 138.29 23.2596 138.013 24.0618ZM141.21 14.5037C141.142 14.5077 141.074 14.5077 141.005 14.5118C140.612 15.7953 140.223 17.0788 139.806 18.4425C140.749 18.4425 141.547 18.4425 142.433 18.4425C142.008 17.0667 141.607 15.7832 141.21 14.5037Z" fill="currentColor"></path>
    <path d="M149.252 9.56226C150.556 9.56226 151.759 9.56226 153.066 9.56226C153.066 13.2443 153.066 16.8902 153.066 20.6485C155.044 20.6485 158.85 20.6485 158.85 20.6485V24.0377C158.85 24.0377 152.469 24.0377 149.252 24.0377C149.252 19.2086 149.252 14.4315 149.252 9.56226Z" fill="currentColor"></path>
    <path d="M123.494 9.55835C124.793 9.55835 125.996 9.55835 127.304 9.55835C127.304 13.2404 127.304 16.8903 127.304 20.6526C129.273 20.6526 131.147 20.6526 133.072 20.6526C133.072 21.8439 133.072 22.9228 133.072 24.0459C129.863 24.0459 126.71 24.0459 123.494 24.0459C123.494 19.2327 123.494 14.4357 123.494 9.55835Z" fill="currentColor"></path>
    <path d="M201.614 43.2178C200.351 43.2178 199.147 43.2178 197.876 43.2178C197.876 40.9156 197.876 38.6534 197.876 36.3872C197.804 36.3591 197.732 36.3311 197.659 36.303C196.885 37.7229 196.111 39.1427 195.325 40.5827C194.515 40.5827 193.721 40.5827 192.822 40.5827C192.08 39.2109 191.314 37.7951 190.548 36.3752C190.5 36.3792 190.452 36.3832 190.404 36.3912C190.404 38.6333 190.404 40.8755 190.404 43.1858C189.072 43.1858 187.849 43.1858 186.557 43.1858C186.557 38.4168 186.557 33.6197 186.557 28.7584C187.817 28.7584 189.072 28.7584 190.432 28.7584C191.599 31.0607 192.794 33.4272 194.082 35.9701C195.341 33.4592 196.524 31.0968 197.712 28.7263C199.003 28.7263 200.267 28.7263 201.61 28.7263C201.614 33.5394 201.614 38.3365 201.614 43.2178Z" fill="currentColor"></path>
    <path d="M215.745 28.7224C217.085 28.7224 218.32 28.7224 219.6 28.7224C221.16 31.3496 222.72 33.9767 224.276 36.5999C224.345 36.5798 224.417 36.5638 224.485 36.5437C224.485 33.9687 224.485 31.3937 224.485 28.7545C225.821 28.7545 227.044 28.7545 228.327 28.7545C228.327 33.5676 228.327 38.3647 228.327 43.2099C227.004 43.2099 225.712 43.2099 224.349 43.2099C222.824 40.675 221.288 38.112 219.748 35.553C219.684 35.5771 219.624 35.5972 219.56 35.6212C219.56 38.116 219.56 40.6148 219.56 43.1818C218.264 43.1818 217.041 43.1818 215.745 43.1818C215.745 38.4008 215.745 33.5997 215.745 28.7224Z" fill="currentColor"></path>
    <path d="M164.746 43.4544C160.266 43.4023 157.213 40.3179 157.261 35.8938C157.313 31.4417 160.442 28.4495 165.002 28.4936C169.394 28.5338 172.459 31.6783 172.379 36.0583C172.298 40.5425 169.242 43.5066 164.746 43.4544ZM164.758 39.8647C166.759 39.9048 168.291 38.2603 168.332 36.0342C168.368 33.8442 166.827 32.0995 164.854 32.0995C162.913 32.0955 161.34 33.772 161.3 35.8938C161.26 38.0437 162.808 39.8246 164.758 39.8647Z" fill="currentColor"></path>
    <path d="M94.9033 43.254C94.9033 38.3847 94.9033 33.6117 94.9033 28.8507C94.9595 28.8026 95.0036 28.7304 95.0477 28.7304C97.1695 28.7544 99.3113 28.6101 101.413 28.8467C105.308 29.2919 107.666 32.1637 107.602 36.0744C107.53 40.4423 104.786 43.1938 100.418 43.25C98.5934 43.2741 96.7724 43.254 94.9033 43.254ZM98.6536 39.7324C100.619 40.0813 102.135 39.4877 103.009 38.0558C103.856 36.6761 103.711 34.7227 102.669 33.3911C101.798 32.2801 100.198 31.8549 98.6536 32.3322C98.6536 34.7989 98.6536 37.2697 98.6536 39.7324Z" fill="currentColor"></path>
    <path d="M203.937 28.7466C207.153 28.7466 210.274 28.7466 213.446 28.7466C213.446 29.8817 213.446 30.9606 213.446 32.1599C211.521 32.1599 209.616 32.1599 207.667 32.1599C207.667 32.938 207.667 33.5998 207.667 34.3539C209.171 34.3539 210.635 34.3539 212.163 34.3539C212.163 35.489 212.163 36.5398 212.163 37.711C210.687 37.711 209.203 37.711 207.667 37.711C207.667 38.4691 207.667 39.1028 207.667 39.8288C209.752 39.8288 211.81 39.8288 213.92 39.8288C213.92 40.996 213.92 42.0709 213.92 43.202C210.591 43.202 207.294 43.202 203.937 43.202C203.937 38.4009 203.937 33.5998 203.937 28.7466Z" fill="currentColor"></path>
    <path d="M135.257 28.7385C138.474 28.7385 141.599 28.7385 144.787 28.7385C144.787 29.8616 144.787 30.9365 144.787 32.1318C142.874 32.1318 140.969 32.1318 139.004 32.1318C139.004 32.9099 139.004 33.5717 139.004 34.3578C140.492 34.3578 141.98 34.3578 143.516 34.3578C143.516 35.525 143.516 36.5719 143.516 37.711C142.012 37.711 140.548 37.711 139.012 37.711C139.012 38.433 139.012 39.0667 139.012 39.8207C141.061 39.8207 143.139 39.8207 145.257 39.8207C145.257 41.016 145.257 42.0909 145.257 43.214C141.911 43.214 138.614 43.214 135.257 43.214C135.257 38.3969 135.257 33.5998 135.257 28.7385Z" fill="currentColor"></path>
    <path d="M118.849 28.7667C118.849 29.9058 118.849 30.9848 118.849 32.1479C116.915 32.1479 115.03 32.1479 113.085 32.1479C113.085 32.898 113.085 33.5598 113.085 34.3178C114.537 34.3178 116.001 34.3178 117.545 34.3178C117.545 35.477 117.545 36.5439 117.545 37.7111C116.073 37.7111 114.609 37.7111 113.085 37.7111C113.085 38.4411 113.085 39.0748 113.085 39.8008C115.135 39.8008 117.188 39.8008 119.314 39.8008C119.314 40.964 119.314 42.0389 119.314 43.186C116.009 43.186 112.688 43.186 109.323 43.186C109.323 38.3889 109.323 33.6119 109.323 28.7627C112.467 28.7667 115.612 28.7667 118.849 28.7667Z" fill="currentColor"></path>
    <path d="M177.842 43.2176C176.53 43.2176 175.359 43.2176 174.127 43.2176C174.127 38.4085 174.127 33.6114 174.127 28.7501C174.388 28.7301 174.645 28.698 174.898 28.698C176.61 28.694 178.327 28.6579 180.036 28.714C183.068 28.8103 184.728 30.4267 184.957 33.4108C185.194 36.5113 183.409 38.5809 180.292 38.7855C179.506 38.8376 178.712 38.7935 177.842 38.7935C177.842 40.3056 177.842 41.7095 177.842 43.2176ZM177.858 35.4404C178.921 35.4283 179.995 35.665 180.701 34.6462C181.086 34.0967 181.09 33.4429 180.665 32.9095C179.927 31.9829 178.896 32.0712 177.858 32.1193C177.858 33.2624 177.858 34.3093 177.858 35.4404Z" fill="currentColor"></path>
    <path d="M127.143 37.3941C128.042 34.5263 128.94 31.6625 129.851 28.7506C131.218 28.7506 132.558 28.7506 134.026 28.7506C132.257 33.6158 130.517 38.4049 128.768 43.218C127.617 43.218 126.502 43.218 125.306 43.218C123.558 38.4249 121.805 33.6238 120.024 28.7385C121.48 28.7385 122.804 28.7385 124.239 28.7385C125.126 31.6144 126.024 34.5223 126.919 37.4302C126.995 37.4142 127.071 37.4021 127.143 37.3941Z" fill="currentColor"></path>
    <path d="M233.566 32.1919C232.306 32.1919 231.167 32.1919 229.948 32.1919C229.948 31.0086 229.948 29.9096 229.948 28.7505C233.638 28.7505 237.316 28.7505 241.07 28.7505C241.07 29.8334 241.07 30.9405 241.07 32.1317C239.927 32.1317 238.756 32.1317 237.472 32.1317C237.472 35.8579 237.472 39.5199 237.472 43.2179C236.137 43.2179 234.909 43.2179 233.566 43.2179C233.566 39.58 233.566 35.918 233.566 32.1919Z" fill="currentColor"></path>
    <path d="M147.098 28.7305C148.385 28.7305 149.588 28.7305 150.904 28.7305C150.904 32.4045 150.904 36.0585 150.904 39.8007C152.861 39.8007 154.71 39.8007 156.632 39.8007C156.632 40.9678 156.632 42.0428 156.632 43.1859C153.483 43.1859 150.314 43.1859 147.102 43.1859C147.098 38.3848 147.098 33.6078 147.098 28.7305Z" fill="currentColor"></path>
    <path d="M211.942 23.1912L207.988 20.4237V7.1876L206.596 5.90811L202.685 7.85342V23.115L198.506 20.4438V3.42133L196.713 1.87712L191.322 4.23555V21.5588H189.718V3.18468L196.998 0L200.11 2.68733V19.5654L201.081 20.1871V6.86272L206.869 3.97885L209.592 6.48167V19.5894L210.338 20.1068V9.41367L215.472 6.75041L217.915 9.12889V18.2498L221.404 16.6614L222.066 18.1214L216.31 20.7406V9.80674L215.179 8.70775L211.942 10.3883V23.1912Z" fill="currentColor"></path>
    <path d="M191.322 24.3542H189.718V18.2777L185.799 16.192V13.244L183.06 11.5513L183.084 8.74769L183.124 8.53911C183.132 8.50302 183.132 8.46692 183.132 8.42681C183.132 7.42809 182.246 6.41332 180.545 6.41332C178.78 6.41332 177.501 7.48424 176.971 8.59126V8.72763L175.082 10.8454L174.673 10.8013C171.332 10.4483 170.117 10.7812 169.744 10.9457V12.8429L169.142 12.9993C169.086 13.0153 167.71 13.3683 166.045 13.6851C165.416 13.8055 165.143 13.9579 165.039 14.0341V16.8738L158.818 18.2456V22.048H157.213V16.9541L163.434 15.5823V13.8376C163.434 13.5367 163.603 12.518 165.749 12.1088C166.715 11.9243 167.59 11.7238 168.143 11.5954V10.4724L168.175 10.3601C168.412 9.5579 169.695 8.71159 174.436 9.16081L175.487 7.9856C176.213 6.38123 178.034 4.80493 180.549 4.80493C183.268 4.80493 184.74 6.67002 184.74 8.4228C184.74 8.54313 184.732 8.65543 184.712 8.77175C184.708 8.82389 184.7 8.88005 184.688 8.9362L184.676 10.6609L187.408 12.3495V15.2294L191.326 17.3151V24.3542H191.322Z" fill="currentColor"></path>
    <path d="M184.672 11.03H183.068V24.3544H184.672V11.03Z" fill="currentColor"></path>
    <path d="M177.91 6.88257H176.306V24.3542H177.91V6.88257Z" fill="currentColor"></path>
    <path d="M176.936 12.8483L163.808 15.4697L164.122 17.043L177.251 14.4215L176.936 12.8483Z" fill="currentColor"></path>
    <path d="M184.216 13.6856L183.51 15.1265L187.329 16.9963L188.034 15.5554L184.216 13.6856Z" fill="currentColor"></path>
    <path d="M234.175 24.3549H232.571V12.0493L230.513 10.5372L222.423 14.0588V24.3549H220.819V13.0039L230.722 8.7002L234.175 11.2351V24.3549Z" fill="currentColor"></path>
    <path d="M238.198 24.3547H236.594V18.571L232.944 15.8716L233.898 14.5801L238.198 17.7607V24.3547Z" fill="currentColor"></path>
    <path d="M241.046 24.3547H239.442V22.658L236.903 20.6766L237.89 19.4092L241.046 21.8759V24.3547Z" fill="currentColor"></path>
  </symbol>
  <symbol fill="none" xmlns="http://www.w3.org/2000/svg" viewBox="0 0 38 22" id="catalog-icon">
    <line y1="11.25" x2="38" y2="11.25" stroke="currentColor" stroke-width="1.5"></line>
    <circle cx="19" cy="11" r="2.25" fill="currentColor" stroke="currentColor" stroke-width="1.5"></circle>
    <path d="M5 1.25H33" stroke="currentColor" stroke-width="1.5"></path>
    <path d="M5 21.25H33" stroke="currentColor" stroke-width="1.5"></path>
  </symbol>
  <symbol fill="none" xmlns="http://www.w3.org/2000/svg" viewBox="0 0 38 34" id="comparison-icon">
    <circle cx="19" cy="17" r="16.25" stroke="currentColor" stroke-width="1.5"></circle>
    <circle cx="3" cy="17" r="2.25" fill="currentColor" stroke="currentColor" stroke-width="1.5"></circle>
    <circle cx="35" cy="17" r="2.25" fill="currentColor" stroke="currentColor" stroke-width="1.5"></circle>
  </symbol>
<symbol fill="none" xmlns="http://www.w3.org/2000/svg" viewBox="0 0 156 36" id="logo">
    <path d="M8.47505 7.93945H8.08535V10.2136V12.4878H8.47505C14.0945 12.4878 18.1454 17.0657 18.1454 22.697V31.4524H0V33.7266V36.0008H22.6842V22.7003C22.6842 14.5618 16.5931 7.93945 8.47505 7.93945Z" fill="currentColor"></path>
    <path d="M4.62145 28.5673V22.726C4.62145 21.0983 5.94446 19.7692 7.57201 19.7692C9.19955 19.7692 10.5226 21.0983 10.5226 22.726V28.5673H12.792H15.0614V22.726C15.0614 18.5878 11.7015 15.2208 7.57201 15.2208C6.52409 15.2208 5.52528 15.4374 4.62145 15.828V2.55371H0.0859375V22.7227V28.564L4.62145 28.5673Z" fill="currentColor"></path>
    <path d="M46.5643 19.6702C45.5229 19.6702 44.5176 19.6702 43.4304 19.6702C43.4304 18.2459 43.4304 16.8545 43.4304 15.4139C42.2056 15.4139 41.0627 15.4139 39.8413 15.4139C39.8413 16.8381 39.8413 18.2262 39.8413 19.6603C38.7409 19.6603 37.7192 19.6603 36.6582 19.6603C36.6582 15.7256 36.6582 11.8139 36.6582 7.8464C37.6799 7.8464 38.7016 7.8464 39.8052 7.8464C39.8052 9.39206 39.8052 10.9246 39.8052 12.5063C41.0333 12.5063 42.1761 12.5063 43.4075 12.5063C43.4075 10.9607 43.4075 9.42816 43.4075 7.83984C44.4947 7.83984 45.4967 7.83984 46.561 7.83984C46.5643 11.7581 46.5643 15.683 46.5643 19.6702Z" fill="currentColor"></path>
    <path d="M51.4361 17.8292C51.2167 18.4855 51.0202 19.0795 50.8205 19.68C49.7267 19.68 48.6722 19.68 47.5195 19.68C48.9539 15.7092 50.3718 11.7909 51.7996 7.83984C52.8214 7.83984 53.8234 7.83984 54.8746 7.83984C56.2828 11.7483 57.6942 15.6731 59.1285 19.6603C58.002 19.6603 56.9541 19.6603 55.8407 19.6603C55.6507 19.0729 55.451 18.4625 55.2447 17.8259C53.9741 17.8292 52.7297 17.8292 51.4361 17.8292ZM54.4358 15.1087C54.069 13.9634 53.7416 12.9395 53.4141 11.9189C53.3551 11.9255 53.2995 11.9288 53.2405 11.9353C52.9196 12.9723 52.5954 14.0126 52.2548 15.112C53.0211 15.1087 53.6597 15.1087 54.4358 15.1087Z" fill="currentColor"></path>
    <path d="M71.8588 19.6874C70.7781 19.6874 69.7466 19.6874 68.5742 19.6874C70.0184 15.6936 71.4396 11.7622 72.8641 7.82422C73.899 7.82422 74.8814 7.82422 75.9227 7.82422C77.3374 11.7523 78.7521 15.6772 80.1865 19.6644C79.0534 19.6644 78.0055 19.6644 76.9117 19.6644C76.712 19.0606 76.5089 18.4469 76.3059 17.8299C75.0222 17.8299 73.7745 17.8299 72.5006 17.8299C72.2878 18.4436 72.0847 19.031 71.8588 19.6874ZM74.4688 11.8672C74.4131 11.8705 74.3574 11.8705 74.3017 11.8738C73.9808 12.9239 73.6632 13.974 73.3226 15.0898C74.0922 15.0898 74.7439 15.0898 75.4676 15.0898C75.1204 13.9642 74.793 12.914 74.4688 11.8672Z" fill="currentColor"></path>
    <path d="M81.0352 7.82422C82.0994 7.82422 83.0819 7.82422 84.1494 7.82422C84.1494 10.8368 84.1494 13.8198 84.1494 16.8947C85.7639 16.8947 88.8716 16.8947 88.8716 16.8947V19.6677C88.8716 19.6677 83.6615 19.6677 81.0352 19.6677C81.0352 15.7166 81.0352 11.8081 81.0352 7.82422Z" fill="currentColor"></path>
    <path d="M60.0039 7.82129C61.0649 7.82129 62.0473 7.82129 63.1149 7.82129C63.1149 10.8338 63.1149 13.8201 63.1149 16.8983C64.7228 16.8983 66.2521 16.8983 67.824 16.8983C67.824 17.873 67.824 18.7557 67.824 19.6746C65.2042 19.6746 62.6303 19.6746 60.0039 19.6746C60.0039 15.7366 60.0039 11.8118 60.0039 7.82129Z" fill="currentColor"></path>
    <path d="M123.786 35.3605C122.754 35.3605 121.772 35.3605 120.734 35.3605C120.734 33.4768 120.734 31.626 120.734 29.7718C120.675 29.7489 120.616 29.7259 120.557 29.7029C119.925 30.8646 119.293 32.0263 118.651 33.2045C117.989 33.2045 117.341 33.2045 116.607 33.2045C116.002 32.0821 115.376 30.9237 114.751 29.762C114.711 29.7653 114.672 29.7686 114.633 29.7751C114.633 31.6096 114.633 33.444 114.633 35.3342C113.545 35.3342 112.547 35.3342 111.492 35.3342C111.492 31.4324 111.492 27.5075 111.492 23.5302C112.52 23.5302 113.545 23.5302 114.656 23.5302C115.609 25.4138 116.584 27.35 117.636 29.4306C118.664 27.3763 119.63 25.4434 120.599 23.5039C121.654 23.5039 122.685 23.5039 123.782 23.5039C123.786 27.4419 123.786 31.3667 123.786 35.3605Z" fill="currentColor"></path>
    <path d="M135.322 23.501C136.416 23.501 137.425 23.501 138.469 23.501C139.743 25.6505 141.017 27.7999 142.288 29.9461C142.343 29.9297 142.402 29.9166 142.458 29.9002C142.458 27.7934 142.458 25.6865 142.458 23.5272C143.548 23.5272 144.547 23.5272 145.595 23.5272C145.595 27.4652 145.595 31.39 145.595 35.3543C144.514 35.3543 143.46 35.3543 142.347 35.3543C141.102 33.2803 139.848 31.1833 138.59 29.0896C138.538 29.1093 138.489 29.1257 138.437 29.1454C138.437 31.1866 138.437 33.231 138.437 35.3313C137.379 35.3313 136.38 35.3313 135.322 35.3313C135.322 31.4196 135.322 27.4915 135.322 23.501Z" fill="currentColor"></path>
    <path d="M93.6834 35.5534C90.0255 35.5108 87.5334 32.9872 87.5727 29.3675C87.6153 25.7249 90.1696 23.2768 93.893 23.3129C97.4788 23.3457 99.9807 25.9185 99.9152 29.5021C99.8498 33.171 97.3544 35.5961 93.6834 35.5534ZM93.6932 32.6164C95.3273 32.6492 96.5783 31.3037 96.611 29.4824C96.6405 27.6906 95.383 26.2631 93.7718 26.2631C92.1868 26.2598 90.9031 27.6315 90.8704 29.3675C90.8376 31.1265 92.1017 32.5835 93.6932 32.6164Z" fill="currentColor"></path>
    <path d="M36.6602 35.39C36.6602 31.4061 36.6602 27.5009 36.6602 23.6056C36.706 23.5662 36.742 23.5072 36.7781 23.5072C38.5104 23.5269 40.2591 23.4087 41.9751 23.6023C45.1549 23.9666 47.0804 26.3163 47.028 29.5159C46.9691 33.0896 44.7291 35.3408 41.1629 35.3867C39.6729 35.4064 38.1862 35.39 36.6602 35.39ZM39.722 32.5087C41.3267 32.7942 42.5645 32.3085 43.2784 31.137C43.9694 30.0081 43.8515 28.4099 43.0001 27.3204C42.2895 26.4114 40.9828 26.0636 39.722 26.4541C39.722 28.4723 39.722 30.4938 39.722 32.5087Z" fill="currentColor"></path>
    <path d="M125.682 23.5195C128.308 23.5195 130.856 23.5195 133.446 23.5195C133.446 24.4482 133.446 25.331 133.446 26.3122C131.874 26.3122 130.319 26.3122 128.727 26.3122C128.727 26.9489 128.727 27.4903 128.727 28.1073C129.955 28.1073 131.15 28.1073 132.398 28.1073C132.398 29.036 132.398 29.8958 132.398 30.854C131.193 30.854 129.981 30.854 128.727 30.854C128.727 31.4742 128.727 31.9927 128.727 32.5867C130.43 32.5867 132.11 32.5867 133.832 32.5867C133.832 33.5417 133.832 34.4212 133.832 35.3466C131.114 35.3466 128.423 35.3466 125.682 35.3466C125.682 31.4184 125.682 27.4903 125.682 23.5195Z" fill="currentColor"></path>
    <path d="M69.6074 23.5137C72.2338 23.5137 74.7848 23.5137 77.3882 23.5137C77.3882 24.4325 77.3882 25.312 77.3882 26.2899C75.8262 26.2899 74.2707 26.2899 72.666 26.2899C72.666 26.9266 72.666 27.468 72.666 28.1112C73.881 28.1112 75.0959 28.1112 76.3501 28.1112C76.3501 29.0662 76.3501 29.9227 76.3501 30.8547C75.1221 30.8547 73.9268 30.8547 72.6726 30.8547C72.6726 31.4454 72.6726 31.9639 72.6726 32.5808C74.346 32.5808 76.0423 32.5808 77.7714 32.5808C77.7714 33.5588 77.7714 34.4383 77.7714 35.3571C75.0402 35.3571 72.3484 35.3571 69.6074 35.3571C69.6074 31.4159 69.6074 27.491 69.6074 23.5137Z" fill="currentColor"></path>
    <path d="M56.2111 23.5365C56.2111 24.4685 56.2111 25.3512 56.2111 26.3029C54.6327 26.3029 53.0936 26.3029 51.5053 26.3029C51.5053 26.9166 51.5053 27.458 51.5053 28.0783C52.6908 28.0783 53.886 28.0783 55.1468 28.0783C55.1468 29.0267 55.1468 29.8996 55.1468 30.8545C53.945 30.8545 52.7497 30.8545 51.5053 30.8545C51.5053 31.4518 51.5053 31.9703 51.5053 32.5643C53.1787 32.5643 54.8554 32.5643 56.591 32.5643C56.591 33.516 56.591 34.3954 56.591 35.334C53.8926 35.334 51.1811 35.334 48.4336 35.334C48.4336 31.4091 48.4336 27.5007 48.4336 23.5332C51.001 23.5365 53.5684 23.5365 56.2111 23.5365Z" fill="currentColor"></path>
    <path d="M104.376 35.3587C103.305 35.3587 102.349 35.3587 101.344 35.3587C101.344 31.424 101.344 27.4992 101.344 23.5218C101.557 23.5054 101.766 23.4792 101.973 23.4792C103.371 23.4759 104.772 23.4463 106.167 23.4923C108.643 23.571 109.999 24.8936 110.186 27.3351C110.379 29.8718 108.922 31.5651 106.377 31.7325C105.735 31.7752 105.087 31.7391 104.376 31.7391C104.376 32.9762 104.376 34.1248 104.376 35.3587ZM104.389 28.9956C105.257 28.9858 106.135 29.1794 106.711 28.3458C107.025 27.8962 107.029 27.3613 106.682 26.9249C106.079 26.1668 105.237 26.239 104.389 26.2784C104.389 27.2137 104.389 28.0702 104.389 28.9956Z" fill="currentColor"></path>
    <path d="M62.9826 30.5955C63.7161 28.2491 64.4497 25.906 65.1931 23.5235C66.3097 23.5235 67.4035 23.5235 68.6021 23.5235C67.1579 27.5041 65.7367 31.4224 64.3089 35.3604C63.369 35.3604 62.4586 35.3604 61.4828 35.3604C60.055 31.4388 58.6239 27.5107 57.1699 23.5137C58.3587 23.5137 59.4393 23.5137 60.6117 23.5137C61.3354 25.8666 62.0689 28.2458 62.7992 30.625C62.8614 30.6119 62.9237 30.602 62.9826 30.5955Z" fill="currentColor"></path>
    <path d="M149.872 26.3391C148.844 26.3391 147.913 26.3391 146.918 26.3391C146.918 25.371 146.918 24.4718 146.918 23.5234C149.931 23.5234 152.934 23.5234 155.999 23.5234C155.999 24.4095 155.999 25.3152 155.999 26.2899C155.066 26.2899 154.109 26.2899 153.061 26.2899C153.061 29.3385 153.061 32.3346 153.061 35.3603C151.971 35.3603 150.969 35.3603 149.872 35.3603C149.872 32.3839 149.872 29.3877 149.872 26.3391Z" fill="currentColor"></path>
    <path d="M79.2754 23.5068C80.3266 23.5068 81.309 23.5068 82.3831 23.5068C82.3831 26.5128 82.3831 29.5024 82.3831 32.5642C83.9812 32.5642 85.4908 32.5642 87.0595 32.5642C87.0595 33.5191 87.0595 34.3986 87.0595 35.3339C84.4888 35.3339 81.9017 35.3339 79.2786 35.3339C79.2754 31.4058 79.2754 27.4973 79.2754 23.5068Z" fill="currentColor"></path>
    <path d="M132.218 18.9745L128.989 16.7101V5.8807L127.852 4.83386L124.66 6.42546V18.9121L121.247 16.7265V2.79924L119.783 1.53581L115.382 3.46541V17.6388H114.072V2.60562L120.016 0L122.557 2.1987V16.0078L123.35 16.5165V5.61489L128.075 3.25539L130.299 5.30313V16.0275L130.908 16.4509V7.70202L135.099 5.52301L137.094 7.46902V14.9315L139.943 13.6319L140.483 14.8265L135.784 16.9694V8.02361L134.86 7.12444L132.218 8.49945V18.9745Z" fill="currentColor"></path>
    <path d="M115.382 19.9264H114.072V14.9547L110.872 13.2482V10.8362L108.636 9.45137L108.655 7.1575L108.688 6.98685C108.695 6.95731 108.695 6.92778 108.695 6.89496C108.695 6.07783 107.971 5.24758 106.582 5.24758C105.142 5.24758 104.097 6.12378 103.665 7.02951V7.14109L102.122 8.87379L101.788 8.8377C99.0603 8.54891 98.0681 8.82129 97.7635 8.95583V10.5081L97.2723 10.636C97.2265 10.6492 96.1032 10.9379 94.7442 11.1972C94.2301 11.2956 94.0074 11.4204 93.9222 11.4827V13.8061L88.8431 14.9284V18.0394H87.5332V13.8717L92.6123 12.7494V11.3219C92.6123 11.0758 92.7499 10.2422 94.5019 9.90751C95.2911 9.75655 96.005 9.59247 96.4569 9.48746V8.5686L96.4831 8.47672C96.6763 7.82039 97.7242 7.12796 101.595 7.4955L102.453 6.53398C103.046 5.22132 104.532 3.93164 106.586 3.93164C108.806 3.93164 110.008 5.45761 110.008 6.89168C110.008 6.99013 110.001 7.08202 109.985 7.17719C109.982 7.21985 109.975 7.26579 109.965 7.31173L109.955 8.72284L112.186 10.1044V12.4606L115.385 14.1671V19.9264H115.382Z" fill="currentColor"></path>
    <path d="M109.952 9.02539H108.643V19.927H109.952V9.02539Z" fill="currentColor"></path>
    <path d="M104.431 5.63184H103.121V19.9267H104.431V5.63184Z" fill="currentColor"></path>
    <path d="M103.637 10.5105L92.918 12.6553L93.1744 13.9425L103.893 11.7976L103.637 10.5105Z" fill="currentColor"></path>
    <path d="M109.58 11.1961L109.004 12.375L112.121 13.9049L112.698 12.726L109.58 11.1961Z" fill="currentColor"></path>
    <path d="M150.37 19.9264H149.06V9.85834L147.38 8.62116L140.775 11.5024V19.9264H139.465V10.6394L147.55 7.11816L150.37 9.19216V19.9264Z" fill="currentColor"></path>
    <path d="M153.655 19.9261H152.345V15.1939L149.365 12.9854L150.145 11.9287L153.655 14.5311V19.9261Z" fill="currentColor"></path>
    <path d="M155.979 19.9261H154.669V18.538L152.596 16.9169L153.401 15.8799L155.979 17.8981V19.9261Z" fill="currentColor"></path>
  </symbol>
   <symbol fill="none" xmlns="http://www.w3.org/2000/svg" viewBox="0 0 42 42" id="telegram-icon">
    <path d="M15.2895 23.8583V34.7667L21.5733 28.2671M38.5 7L1.75 21.875L15.2895 23.8583L38.5 7ZM38.5 7L33.6645 36.75L15.2895 23.8583L38.5 7ZM38.5 7L15.2895 23.8583L38.5 7Z" stroke="currentColor" stroke-width="2.5" stroke-linecap="round" stroke-linejoin="round"></path>
  </symbol>
  <symbol fill="none" xmlns="http://www.w3.org/2000/svg" viewBox="0 0 42 42" id="whatsapp-icon">
    <path fill-rule="evenodd" clip-rule="evenodd" d="M32.6919 9.29565C29.5897 6.20473 25.4643 4.50179 21.0689 4.5C12.0124 4.5 4.64133 11.8352 4.6378 20.8512C4.63653 23.7334 5.39314 26.5465 6.83107 29.0263L4.5 37.5L13.2103 35.2261C15.6102 36.5288 18.3123 37.2155 21.0623 37.2164H21.069C21.0695 37.2164 21.0686 37.2164 21.0691 37.2164C30.1247 37.2164 37.4962 29.8805 37.5 20.8643C37.5016 16.4949 35.7941 12.3864 32.6919 9.29565ZM21.0689 34.4548H21.0634C18.6129 34.4538 16.2094 33.7985 14.1125 32.5602L13.6139 32.2657L8.44508 33.6151L9.82477 28.5996L9.50003 28.0853C8.133 25.9214 7.411 23.4203 7.41207 20.8521C7.415 13.3584 13.5415 7.26181 21.0745 7.26181C24.7221 7.26294 28.1511 8.67859 30.7296 11.2476C33.3079 13.8167 34.7271 17.2315 34.7257 20.8632C34.7226 28.3575 28.5962 34.4548 21.0689 34.4548Z" fill="currentColor"></path>
    <path fill-rule="evenodd" clip-rule="evenodd" d="M29.1628 24.1788C28.7569 23.9798 26.7609 23.0182 26.3888 22.8854C26.0167 22.7528 25.7461 22.6864 25.4755 23.0844C25.2049 23.4823 24.4268 24.3778 24.19 24.6432C23.9533 24.9084 23.7164 24.9417 23.3105 24.7426C22.9046 24.5436 21.5965 24.1239 20.0459 22.7695C18.839 21.7153 18.0243 20.4136 17.7874 20.0155C17.5507 19.6176 17.7622 19.4025 17.9655 19.2042C18.1481 19.026 18.3715 18.7399 18.5745 18.5077C18.7774 18.2757 18.8451 18.1097 18.9804 17.8446C19.1157 17.5792 19.0481 17.3471 18.9466 17.1482C18.8451 16.9492 18.0332 14.9924 17.695 14.1963C17.3653 13.4213 17.0307 13.5263 16.7815 13.5139C16.545 13.5024 16.274 13.5 16.0034 13.5C15.7328 13.5 15.2929 13.5995 14.9209 13.9974C14.5488 14.3954 13.5 15.3573 13.5 17.3138C13.5 19.2706 14.9547 21.1609 15.1577 21.4262C15.3606 21.6916 18.0203 25.7069 22.0926 27.4288C23.0612 27.8385 23.8174 28.0831 24.4069 28.2662C25.3794 28.5688 26.2644 28.5261 26.9639 28.4237C27.7439 28.3096 29.3658 27.4621 29.7041 26.5336C30.0424 25.6049 30.0424 24.8088 29.9408 24.6431C29.8394 24.4773 29.5687 24.3778 29.1628 24.1788Z" fill="currentColor"></path>
  </symbol>
  <symbol fill="none" xmlns="http://www.w3.org/2000/svg" viewBox="0 0 42 42" id="phone-icon">
    <path d="M22.3125 30.9375C23.1409 30.9375 23.8125 31.6091 23.8125 32.4375C23.8125 33.2659 23.1409 33.9375 22.3125 33.9375H19.6875C18.8591 33.9375 18.1875 33.2659 18.1875 32.4375C18.1875 31.6091 18.8591 30.9375 19.6875 30.9375H22.3125Z" fill="currentColor"></path>
    <path fill-rule="evenodd" clip-rule="evenodd" d="M28.6875 2.8125H13.3125C11.0343 2.8125 9.1875 4.65933 9.1875 6.9375V35.0625C9.1875 37.3407 11.0343 39.1875 13.3125 39.1875H28.6875C30.9657 39.1875 32.8125 37.3407 32.8125 35.0625V6.9375C32.8125 4.65933 30.9657 2.8125 28.6875 2.8125ZM29.8125 6.9375C29.8125 6.31618 29.3088 5.8125 28.6875 5.8125H26.25V6.9375C26.25 8.03152 25.8154 9.08073 25.0418 9.85432C24.2682 10.6279 23.219 11.0625 22.125 11.0625H19.875C18.781 11.0625 17.7318 10.6279 16.9582 9.85432C16.1846 9.08073 15.75 8.03152 15.75 6.9375V5.8125H13.3125C12.6912 5.8125 12.1875 6.31618 12.1875 6.9375V35.0625C12.1875 35.6838 12.6912 36.1875 13.3125 36.1875H28.6875C29.3088 36.1875 29.8125 35.6838 29.8125 35.0625V6.9375ZM23.25 6.9375V5.8125H18.75V6.9375C18.75 7.23587 18.8685 7.52202 19.0795 7.733C19.2905 7.94397 19.5766 8.0625 19.875 8.0625H22.125C22.4234 8.0625 22.7095 7.94397 22.9205 7.733C23.1315 7.52202 23.25 7.23587 23.25 6.9375Z" fill="currentColor"></path>
  </symbol>
  <symbol fill="none" xmlns="http://www.w3.org/2000/svg" viewBox="0 0 28 28" id="mail-icon">
    <path d="M26.037 6.34793C26.037 5.0512 24.9858 4 23.689 4H4.34793C3.0512 4 2 5.0512 2 6.34793V21.6521C2 22.9488 3.0512 24 4.34793 24H23.689C24.9858 24 26.037 22.9488 26.037 21.6521V6.34793ZM4.36051 5.87633H23.7074C23.9664 5.87633 24.1748 6.08284 24.1748 6.34181V6.36217L14.3655 16.1725C14.2459 16.2922 14.1067 16.3101 14.0341 16.3101C13.9615 16.3101 13.8218 16.2922 13.7021 16.1725L3.89055 6.36084V6.34181C3.89055 6.08284 4.10158 5.87633 4.36051 5.87633ZM23.7074 22.1237H4.36051C4.10158 22.1237 3.89055 21.9093 3.89055 21.6503V9.01721L12.3742 17.5007C12.8177 17.9442 13.4074 18.1884 14.0345 18.1884C14.6617 18.1883 15.2503 17.9441 15.6937 17.5007L24.1748 9.01854V21.6503C24.1748 21.9093 23.9664 22.1237 23.7074 22.1237Z" fill="currentColor"></path>
  </symbol>
  <symbol fill="none" xmlns="http://www.w3.org/2000/svg" viewBox="0 0 32 32" id="plane">
    <path d="M7.82397 11.2538L3.89297 6.2998L1.07397 7.3258L3.12597 12.9638" stroke="white" stroke-width="2" stroke-linecap="round" stroke-linejoin="round"/>
    <path d="M20.0401 6.807L12.6061 1L9.78711 2.026L14.4021 8.86" stroke="white" stroke-width="2" stroke-linecap="round" stroke-linejoin="round"/>
    <path d="M21.153 12.788L29.61 9.70903C30.0985 9.52038 30.4936 9.14762 30.7103 8.67083C30.927 8.19405 30.948 7.65129 30.7689 7.15916C30.5898 6.66704 30.2247 6.26481 29.7522 6.03891C29.2797 5.81301 28.7375 5.78146 28.242 5.95103L26.805 5.28003C26.4479 5.11355 26.0615 5.01903 25.6679 5.00187C25.2743 4.98471 24.8812 5.04525 24.511 5.18003L3.12598 12.964L4.15198 15.783C6.614 16.9311 9.43125 17.0541 11.984 16.125L16.078 14.635" stroke="white" stroke-width="2" stroke-linecap="round" stroke-linejoin="round"/>
    <path d="M9 23H5C4.20435 23 3.44129 23.3161 2.87868 23.8787C2.31607 24.4413 2 25.2044 2 26C2 26.7956 2.31607 27.5587 2.87868 28.1213C3.44129 28.6839 4.20435 29 5 29H26" stroke="white" stroke-width="2" stroke-linecap="round" stroke-linejoin="round"/>
    <path d="M20.13 21.6729L17.311 22.6989L15.77 12.6179L21.408 10.5659L20.13 21.6729Z" stroke="white" stroke-width="2" stroke-linecap="round" stroke-linejoin="round"/>
    <path d="M11 25C12.1046 25 13 24.1046 13 23C13 21.8954 12.1046 21 11 21C9.89543 21 9 21.8954 9 23C9 24.1046 9.89543 25 11 25Z" stroke="white" stroke-width="2" stroke-linecap="round" stroke-linejoin="round"/>
    <path d="M28 31C29.1046 31 30 30.1046 30 29C30 27.8954 29.1046 27 28 27C26.8954 27 26 27.8954 26 29C26 30.1046 26.8954 31 28 31Z" stroke="white" stroke-width="2" stroke-linecap="round" stroke-linejoin="round"/>
  </symbol>
  <symbol fill="none" xmlns="http://www.w3.org/2000/svg" viewBox="0 0 32 32" id="sheep">
    <g clip-path="url(#clip0_458_4484)">
    <path d="M31.3599 28.5734C31.0437 28.6848 30.6617 28.7629 30.1785 28.7629C29.1941 28.7629 27.6812 28.4941 26.6335 27.6685C25.5858 28.4941 24.0735 28.7629 23.0892 28.7629C22.1049 28.7629 20.5925 28.4941 19.5442 27.6685C18.4965 28.4941 16.9842 28.7629 15.9999 28.7629C15.0156 28.7629 13.5033 28.4941 12.4549 27.6685C11.4073 28.4941 9.89493 28.7629 8.91061 28.7629C7.92629 28.7629 6.41397 28.4941 5.36629 27.6685C4.31861 28.4941 2.80565 28.7629 1.82133 28.7629C1.37973 28.7629 0.995093 28.7232 0.639893 28.6688" stroke="white" stroke-width="2" stroke-miterlimit="10" stroke-linecap="round" stroke-linejoin="round"/>
    <path d="M31.3599 31.1335C31.0437 31.2448 30.6617 31.3229 30.1785 31.3229C29.1941 31.3229 27.6812 31.0541 26.6335 30.2285C25.5858 31.0541 24.0735 31.3229 23.0892 31.3229C22.1049 31.3229 20.5925 31.0541 19.5442 30.2285C18.4965 31.0541 16.9842 31.3229 15.9999 31.3229C15.0156 31.3229 13.5033 31.0541 12.4549 30.2285C11.4073 31.0541 9.89493 31.3229 8.91061 31.3229C7.92629 31.3229 6.41397 31.0541 5.36629 30.2285C4.31861 31.0541 2.80565 31.3229 1.82133 31.3229C1.37973 31.3229 0.995093 31.2832 0.639893 31.2288" stroke="white" stroke-width="2" stroke-miterlimit="10" stroke-linecap="round" stroke-linejoin="round"/>
    <path d="M28.1601 19.8719C28.1601 20.4601 27.5719 20.4799 27.5719 20.4799H26.2823C26.2823 20.4799 25.6001 20.4415 25.6001 19.8534C25.6001 19.511 25.6001 19.0175 25.6001 19.0175C25.6001 19.0175 25.6219 18.7705 26.018 18.7705C26.4148 18.7705 26.4532 19.0175 26.4532 19.0175V19.5295C26.4532 19.5295 26.4929 19.7772 26.8711 19.7772C27.2494 19.7772 27.307 19.5295 27.307 19.5295V19.0175C27.307 19.0175 27.3467 18.7705 27.7435 18.7705C28.1409 18.7705 28.1601 19.0175 28.1601 19.0175C28.1601 19.0175 28.1601 19.5494 28.1601 19.8719Z" fill="white"/>
    <path d="M24.8102 16.5654L19.2 10.2402H14.08L12.8 14.0802H9.60001L6.40001 10.2402H3.84001L5.12001 13.4402L2.94849 16.6799" stroke="white" stroke-width="2" stroke-miterlimit="10" stroke-linecap="round" stroke-linejoin="round"/>
    <path d="M4 17.2798H23.28" stroke="white" stroke-width="2" stroke-miterlimit="10" stroke-linecap="round" stroke-linejoin="round"/>
    <path d="M20.8914 28.3713C25.3004 27.5291 30.0626 23.8049 31.3145 18.1973C31.3913 17.8472 31.3893 17.4606 31.1653 17.1816C30.9401 16.9013 30.4396 16.6401 30.0799 16.6401H24.3199L21.7599 20.4801H4.47989L3.19989 16.6401H1.91989C1.26645 16.6401 0.639893 17.2673 0.639893 17.9201V21.4651C0.639893 24.7272 2.65973 26.9345 4.56501 27.9374" stroke="white" stroke-width="2.0021" stroke-miterlimit="10" stroke-linecap="round" stroke-linejoin="round"/>
    <path d="M5.01318 14.0801H22.4269" stroke="white" stroke-width="2" stroke-miterlimit="10" stroke-linecap="round" stroke-linejoin="round"/>
    </g>
    <defs>
    <clipPath id="clip0_458_4484">
    <rect width="32" height="32" fill="white"/>
    </clipPath>
    </defs>
  </symbol>
  <symbol fill="none" xmlns="http://www.w3.org/2000/svg" viewBox="0 0 53 77" id="logo-sm">
    <path d="M19.5085 12.3701H18.6115V17.594V22.8179H19.5085C32.4439 22.8179 41.7685 33.3335 41.7685 46.2688V66.3804H0V71.6043V76.8282H52.2162V46.2764C52.2162 27.582 38.1954 12.3701 19.5085 12.3701Z" fill="currentColor"/>
    <path d="M10.637 59.7543V46.3365C10.637 42.5977 13.6824 39.5447 17.4288 39.5447C21.1752 39.5447 24.2206 42.5977 24.2206 46.3365V59.7543H29.4445H34.6684V46.3365C34.6684 36.831 26.9343 29.097 17.4288 29.097C15.0166 29.097 12.7175 29.5945 10.637 30.4915V0H0.196777V46.329V59.7468L10.637 59.7543Z" fill="currentColor"/>
  </symbol>
</svg>