<svg width="42" height="42" viewBox="0 0 42 42" fill="none" xmlns="http://www.w3.org/2000/svg">
<path fill-rule="evenodd" clip-rule="evenodd" d="M32.6919 9.29565C29.5897 6.20473 25.4643 4.50179 21.0689 4.5C12.0124 4.5 4.64133 11.8352 4.6378 20.8512C4.63653 23.7334 5.39314 26.5465 6.83107 29.0263L4.5 37.5L13.2103 35.2261C15.6102 36.5288 18.3123 37.2155 21.0623 37.2164H21.069C21.0695 37.2164 21.0686 37.2164 21.0691 37.2164C30.1247 37.2164 37.4962 29.8805 37.5 20.8643C37.5016 16.4949 35.7941 12.3864 32.6919 9.29565ZM21.0689 34.4548H21.0634C18.6129 34.4538 16.2094 33.7985 14.1125 32.5602L13.6139 32.2657L8.44508 33.6151L9.82477 28.5996L9.50003 28.0853C8.133 25.9214 7.411 23.4203 7.41207 20.8521C7.415 13.3584 13.5415 7.26181 21.0745 7.26181C24.7221 7.26294 28.1511 8.67859 30.7296 11.2476C33.3079 13.8167 34.7271 17.2315 34.7257 20.8632C34.7226 28.3575 28.5962 34.4548 21.0689 34.4548Z" fill="#00C57E"/>
<path fill-rule="evenodd" clip-rule="evenodd" d="M29.1628 24.1788C28.7569 23.9798 26.7609 23.0182 26.3888 22.8854C26.0167 22.7528 25.7461 22.6864 25.4755 23.0844C25.2049 23.4823 24.4268 24.3778 24.19 24.6432C23.9533 24.9084 23.7164 24.9417 23.3105 24.7426C22.9046 24.5436 21.5965 24.1239 20.0459 22.7695C18.839 21.7153 18.0243 20.4136 17.7874 20.0155C17.5507 19.6176 17.7622 19.4025 17.9655 19.2042C18.1481 19.026 18.3715 18.7399 18.5745 18.5077C18.7774 18.2757 18.8451 18.1097 18.9804 17.8446C19.1157 17.5792 19.0481 17.3471 18.9466 17.1482C18.8451 16.9492 18.0332 14.9924 17.695 14.1963C17.3653 13.4213 17.0307 13.5263 16.7815 13.5139C16.545 13.5024 16.274 13.5 16.0034 13.5C15.7328 13.5 15.2929 13.5995 14.9209 13.9974C14.5488 14.3954 13.5 15.3573 13.5 17.3138C13.5 19.2706 14.9547 21.1609 15.1577 21.4262C15.3606 21.6916 18.0203 25.7069 22.0926 27.4288C23.0612 27.8385 23.8174 28.0831 24.4069 28.2662C25.3794 28.5688 26.2644 28.5261 26.9639 28.4237C27.7439 28.3096 29.3658 27.4621 29.7041 26.5336C30.0424 25.6049 30.0424 24.8088 29.9408 24.6431C29.8394 24.4773 29.5687 24.3778 29.1628 24.1788Z" fill="#00C57E"/>
</svg>
